<svg width="20" height="17" viewBox="0 0 35 31" fill="none" xmlns="http://www.w3.org/2000/svg">
    <circle cx="17.3639" cy="15.424" r="14.18728" fill="white" stroke="black" />
    <path d="M33.599 8.55064C33.599 8.55064 25.2611 1.31193 24.7313 1L4.78776 13.6752L1.005 21.6368L11.16 30.2816L34.0001 15.7695L33.599 8.55064Z" stroke="white" stroke-width="0.990247" stroke-miterlimit="10"/>
    <path d="M33.599 8.55064L13.6554 21.2208C13.1256 20.9089 4.78772 13.6752 4.78772 13.6752L24.7313 1C25.2611 1.30698 33.599 8.55064 33.599 8.55064Z" fill="#FFD844"/>
    <path d="M4.7877 13.6653L1 21.6268L11.1599 30.2767L13.6554 21.2159L4.7877 13.6653Z" fill="#FDC400"/>
    <path d="M33.5989 8.54074L34 15.7596L11.1599 30.2767L13.6553 21.2159L33.5989 8.54074Z" fill="#C6A429"/>
    <path d="M33.599 8.55064L13.6554 21.2208C13.1256 20.9089 4.78772 13.6752 4.78772 13.6752L24.7313 1C25.2611 1.30698 33.599 8.55064 33.599 8.55064Z" fill="#FFEA7B"/>
    <g style="mix-blend-mode:multiply">
        <g style="mix-blend-mode:multiply">
            <path d="M13.898 17.0123L12.9078 16.8439L12.5117 16.6855L10.4421 14.7595L10.1747 14.5515L10.2688 13.8039L10.4817 13.6256L11.9175 12.4869L12.4126 12.2789L13.6653 12.5314L13.7099 13.4177L12.5711 13.2691V13.388L11.1946 13.7989L11.0709 14.0366L11.1946 14.4376H11.363L13.185 16.0468L13.2395 16.1458L13.7346 16.3587L13.9624 16.329L14.6506 15.7596L14.8338 15.6358L14.7744 14.601V14.3782L14.5664 14.4624L13.5415 14.9872L12.7592 14.3089L14.5912 13.2345L16.1112 14.6555L17.0222 15.1853L16.2895 15.4477L15.7102 15.4031L15.6607 15.8983L15.4775 16.2894L14.304 16.7845L13.898 17.0123Z" fill="#C6A429"/>
        </g>
        <g style="mix-blend-mode:multiply">
            <path d="M18.2947 14.1257L17.2698 14.2099L16.7746 14.0416L14.6753 12.1502L14.5862 11.764L14.6604 11.0164L14.6902 10.5212L16.3785 9.58545L16.8737 9.64982L17.8639 9.69438L18.2451 9.86767L20.3445 11.7541L20.7455 11.9818L20.5475 12.7245L20.4485 13.1553L18.6412 13.9029L18.2947 14.1257ZM17.5767 13.4425L18.1214 13.3137L18.1659 13.2741L19.4582 12.5413L19.577 12.5116L19.6315 12.1155L19.3938 12.165L17.6213 10.4915L17.5619 10.2885H17.0073H16.8291L15.5418 11.0312L15.7052 11.254L15.5269 11.6402H15.6903L17.3193 13.4771L17.5767 13.4425Z" fill="#C6A429"/>
        </g>
        <g style="mix-blend-mode:multiply">
            <path d="M22.32 11.6402L20.2455 10.2291L18.3838 8.41201L19.2057 7.74359L20.7752 9.33293L22.4141 10.5658L24.459 9.41711L25.2759 10.14L22.32 11.6402Z" fill="#C6A429"/>
        </g>
        <g style="mix-blend-mode:multiply">
            <path d="M25.9196 9.40226L24.0233 7.74359L22.0973 6.16414L24.2857 4.86197L24.6571 4.45102L25.6473 4.82732L26.2167 4.73324L28.2418 6.71374L28.5636 7.07517L28.3606 7.81785L28.2418 8.25357L25.9196 9.40226ZM25.9196 8.61006L27.3406 7.7733L27.4644 7.57029L27.4991 7.18905L27.1723 7.22372L25.5087 5.4066L25.2958 5.64427L24.8007 5.41652L24.766 5.57494L23.3846 6.24832L25.9196 8.61006Z" fill="#C6A429"/>
        </g>
    </g>
    <path d="M33.5989 8.54074L34 15.7596L11.1599 30.2767L13.6553 21.2159L33.5989 8.54074Z" fill="#B18710"/>
    <path d="M4.7877 13.6653L1 21.6268L11.1599 30.2767L13.6554 21.2159L4.7877 13.6653Z" fill="#FED843"/>
</svg>
