<svg width="19" height="21" viewBox="0 0 19 21" fill="none" xmlns="http://www.w3.org/2000/svg">
    <circle cx="9.3639" cy="10.424" r="9.18728" fill="white" stroke="black" />
    <g clipPath="url(#clip0_199_13315)">
        <path d="M12.7165 2.37354C12.9634 2.60393 12.8997 2.83049 12.7444 3.09545C11.7198 4.84902 10.7044 6.60772 9.69834 8.37153C9.38378 8.9168 9.4873 9.08577 10.1403 9.08577C11.6335 9.08577 13.1267 9.08577 14.6199 9.08577C14.8238 9.12654 15.0191 9.20055 15.1972 9.30464C15.1397 9.49613 15.051 9.6776 14.9344 9.84224C11.9613 12.6582 8.98161 15.4537 5.99526 18.2287C5.91562 18.3055 5.83997 18.4092 5.74441 18.436C5.61665 18.4856 5.47398 18.4856 5.34623 18.436C5.30037 18.3833 5.26641 18.3219 5.24653 18.2558C5.22665 18.1897 5.22127 18.1203 5.23075 18.052C5.23075 17.9407 5.34224 17.837 5.40197 17.7333L8.48389 12.5648C8.79049 12.0502 8.67502 11.8659 8.05386 11.8659C6.75977 11.8659 5.4617 11.8659 4.16363 11.8659C3.94682 11.8242 3.73841 11.749 3.54645 11.6432C3.6064 11.4526 3.69494 11.2715 3.80925 11.1056C6.66288 8.18977 9.52447 5.28294 12.394 2.38505L12.7165 2.37354Z" fill="#ED9B28"/>
    </g>
    <defs>
        <clipPath id="clip0_199_13315">
            <rect width="12.3675" height="16.6078" fill="white" transform="translate(3.18015 2.12012)"/>
        </clipPath>
    </defs>
</svg>