<svg width="25" height="28" viewBox="0 0 25 28" fill="none" xmlns="http://www.w3.org/2000/svg">
    <circle cx="12.4853" cy="13.8987" r="12.4853" fill="white"/>
    <g clip-path="url(#clip0_149_9713)">
        <path d="M16.9556 3.16477C17.2847 3.47197 17.1998 3.77404 16.9927 4.12732C15.6265 6.46542 14.2727 8.81034 12.9313 11.1621C12.5119 11.8891 12.6499 12.1144 13.5206 12.1144C15.5115 12.1144 17.5024 12.1144 19.4933 12.1144C19.7652 12.1688 20.0256 12.2675 20.2631 12.4062C20.1864 12.6616 20.0682 12.9035 19.9127 13.123C15.9486 16.8777 11.9756 20.605 7.99384 24.305C7.88766 24.4074 7.78679 24.5456 7.65937 24.5814C7.48903 24.6475 7.2988 24.6475 7.12846 24.5814C7.06732 24.5111 7.02204 24.4292 6.99554 24.3411C6.96903 24.2529 6.96186 24.1604 6.9745 24.0694C6.9745 23.921 7.12316 23.7827 7.20279 23.6445L11.312 16.7531C11.7208 16.067 11.5669 15.8212 10.7386 15.8212C9.01319 15.8212 7.28243 15.8212 5.55167 15.8212C5.26259 15.7656 4.98471 15.6653 4.72876 15.5243C4.8087 15.2702 4.92675 15.0287 5.07916 14.8075C8.884 10.9198 12.6995 7.04397 16.5255 3.18013L16.9556 3.16477Z"
              fill="#ED9B28"/>
    </g>
    <defs>
        <clipPath id="clip0_149_9713">
            <rect width="16.49" height="22.1437" fill="white" transform="translate(4.2403 2.82686)"/>
        </clipPath>
    </defs>
</svg>
